<svg width="15" height="15" viewBox="0 0 15 15" fill="none" xmlns="http://www.w3.org/2000/svg">
<path fill-rule="evenodd" clip-rule="evenodd" d="M3.47091 2.23501C3.75452 1.02955 2.97733 8.89482e-07 1.78084 8.89482e-07C0.992665 -0.000698173 0.366644 0.4107 0.121146 1.08842C-0.27036 2.17894 0.322713 3.3059 1.38676 3.49653C2.38878 3.66964 3.25642 3.14611 3.47091 2.23501ZM3.52867 9.26435V13.8626C3.52867 14.0528 3.48793 14.1202 3.26166 14.1176C2.25762 14.1056 1.25359 14.1082 0.248826 14.1176C0.0625703 14.1176 0 14.0762 0 13.8967C0.00533545 10.8062 0.00533545 7.71579 0 4.62535C0 4.46451 0.0421986 4.41046 0.226272 4.41179C1.24922 4.4198 2.27193 4.4198 3.2944 4.41179C3.49811 4.41179 3.53013 4.47853 3.5294 4.64337C3.52688 5.70832 3.5275 6.77486 3.52812 7.84168C3.5284 8.31589 3.52867 8.79015 3.52867 9.26435ZM8.48148 5.9324C8.50496 5.90735 8.523 5.88893 8.53729 5.87435C8.56017 5.851 8.57343 5.83748 8.58394 5.82222C9.4187 4.61221 10.6114 4.25755 12.0031 4.46943C13.6116 4.71457 14.6407 5.83265 14.9035 7.54206C14.9658 7.94658 14.9967 8.35524 14.9961 8.76446C14.9961 9.16996 14.9959 9.57542 14.9957 9.98086V9.98094C14.9951 11.2781 14.9945 12.575 15 13.8718C15 14.0635 14.9534 14.1196 14.7557 14.1176C13.8572 14.1063 12.9585 14.1063 12.0596 14.1176C11.8626 14.1176 11.8127 14.0641 11.814 13.8718C11.8212 12.2843 11.8186 10.6962 11.814 9.10869C11.8223 8.74829 11.7792 8.38854 11.6859 8.04015C11.3575 6.91945 10.0742 6.52567 9.15928 7.27085C8.66472 7.67375 8.47163 8.20574 8.47557 8.83552C8.48082 9.83513 8.47907 10.833 8.47732 11.8311C8.47645 12.3302 8.47557 12.8293 8.47557 13.3287C8.47557 13.3939 8.4744 13.4591 8.47324 13.5243C8.4709 13.6547 8.46856 13.7851 8.47557 13.9155C8.48871 14.085 8.41843 14.1183 8.26343 14.1169C7.34832 14.1113 6.43321 14.1113 5.5181 14.1169C5.35194 14.1169 5.29283 14.0844 5.29414 13.9031C5.30771 12.5558 5.31428 11.2056 5.31384 9.85256C5.31384 8.1914 5.30903 6.53002 5.29939 4.86843C5.29939 4.68653 5.33617 4.63307 5.52532 4.63503C6.44087 4.64502 7.35598 4.64502 8.27066 4.63503C8.43551 4.63503 8.48148 4.68327 8.47623 4.84235C8.47477 5.03193 8.47654 5.22171 8.47841 5.42211L8.47841 5.42231C8.47991 5.58365 8.48148 5.75187 8.48148 5.9324Z" fill="#FEFEFE"/>
</svg>
