<svg width="20" height="20" viewBox="0 0 20 20" fill="none" xmlns="http://www.w3.org/2000/svg">
<path fill-rule="evenodd" clip-rule="evenodd" d="M2.35491 16.085H14.0851C15.2855 16.085 16.2581 15.1124 16.2581 13.912V2.18181C16.2581 0.981431 15.2855 0.00878906 14.0851 0.00878906H2.35491C1.15453 0.00878906 0.181885 0.981431 0.181885 2.18181V13.912C0.181885 15.1124 1.15453 16.085 2.35491 16.085ZM14.2581 13.912C14.2581 14.0078 14.1809 14.085 14.0851 14.085H2.35491C2.2591 14.085 2.18188 14.0078 2.18188 13.912V2.18181C2.18188 2.086 2.2591 2.00879 2.35491 2.00879H14.0851C14.1809 2.00879 14.2581 2.086 14.2581 2.18181V13.912Z" fill="#0084D1"/>
<path d="M17.7708 4.51904V15.0762C17.7708 16.4676 16.6432 17.5953 15.2518 17.5953H4.69458C4.1423 17.5953 3.69458 18.043 3.69458 18.5953C3.69458 19.1476 4.1423 19.5953 4.69458 19.5953H15.2518C17.7477 19.5953 19.7708 17.5722 19.7708 15.0762V4.51904C19.7708 3.96676 19.3231 3.51904 18.7708 3.51904C18.2185 3.51904 17.7708 3.96676 17.7708 4.51904Z" fill="#00AFF5"/>
</svg>
