<svg width="18" height="18" viewBox="0 0 18 18" fill="none" xmlns="http://www.w3.org/2000/svg">
<mask id="mask0_201_25" style="mask-type:alpha" maskUnits="userSpaceOnUse" x="0" y="0" width="18" height="18">
<path fill-rule="evenodd" clip-rule="evenodd" d="M0.666748 0.671936H17.3282V17.3314H0.666748V0.671936Z" fill="white"/>
</mask>
<g mask="url(#mask0_201_25)">
<path fill-rule="evenodd" clip-rule="evenodd" d="M8.99747 0.671936C6.73497 0.671936 6.45127 0.681526 5.56271 0.722068C4.67601 0.762511 4.07042 0.903351 3.54052 1.1093C2.99271 1.32217 2.52812 1.60702 2.06496 2.07015C1.60183 2.53331 1.31698 2.9979 1.10412 3.54571C0.898163 4.07561 0.757323 4.6812 0.71688 5.5679C0.676338 6.45646 0.666748 6.74016 0.666748 9.00266C0.666748 11.2651 0.676338 11.5488 0.71688 12.4374C0.757323 13.3241 0.898163 13.9297 1.10412 14.4596C1.31698 15.0074 1.60183 15.472 2.06496 15.9351C2.52812 16.3983 2.99271 16.6831 3.54052 16.896C4.07042 17.1019 4.67601 17.2428 5.56271 17.2832C6.45127 17.3238 6.73497 17.3333 8.99747 17.3333C11.2599 17.3333 11.5436 17.3238 12.4322 17.2832C13.3189 17.2428 13.9245 17.1019 14.4544 16.896C15.0022 16.6831 15.4668 16.3983 15.9299 15.9351C16.3931 15.472 16.6779 15.0074 16.8908 14.4596C17.0967 13.9297 17.2376 13.3241 17.278 12.4374C17.3186 11.5488 17.3282 11.2651 17.3282 9.00266C17.3282 6.74016 17.3186 6.45646 17.278 5.5679C17.2376 4.6812 17.0967 4.07561 16.8908 3.54571C16.6779 2.9979 16.3931 2.53331 15.9299 2.07015C15.4668 1.60702 15.0022 1.32217 14.4544 1.1093C13.9245 0.903351 13.3189 0.762511 12.4322 0.722068C11.5436 0.681526 11.2599 0.671936 8.99747 0.671936ZM8.99747 2.17296C11.2218 2.17296 11.4853 2.18146 12.3638 2.22154C13.176 2.25858 13.6171 2.39429 13.9107 2.50838C14.2995 2.6595 14.577 2.84002 14.8685 3.13156C15.1601 3.42306 15.3406 3.70057 15.4917 4.08943C15.6058 4.38298 15.7415 4.82409 15.7786 5.63632C15.8186 6.51476 15.8271 6.77825 15.8271 9.00266C15.8271 11.227 15.8186 11.4905 15.7786 12.369C15.7415 13.1812 15.6058 13.6223 15.4917 13.9159C15.3406 14.3047 15.1601 14.5822 14.8685 14.8737C14.577 15.1653 14.2995 15.3458 13.9107 15.4969C13.6171 15.611 13.176 15.7467 12.3638 15.7837C11.4855 15.8238 11.222 15.8323 8.99747 15.8323C6.7729 15.8323 6.50947 15.8238 5.63113 15.7837C4.8189 15.7467 4.37779 15.611 4.08424 15.4969C3.69539 15.3458 3.41787 15.1653 3.12637 14.8737C2.83487 14.5822 2.65431 14.3047 2.50319 13.9159C2.3891 13.6223 2.25339 13.1812 2.21635 12.369C2.17627 11.4905 2.16777 11.227 2.16777 9.00266C2.16777 6.77825 2.17627 6.51476 2.21635 5.63632C2.25339 4.82409 2.3891 4.38298 2.50319 4.08943C2.65431 3.70057 2.83484 3.42306 3.12637 3.13156C3.41787 2.84002 3.69539 2.6595 4.08424 2.50838C4.37779 2.39429 4.8189 2.25858 5.63113 2.22154C6.50957 2.18146 6.77306 2.17296 8.99747 2.17296V2.17296Z" fill="white"/>
</g>
<path fill-rule="evenodd" clip-rule="evenodd" d="M8.99743 11.7795C7.46376 11.7795 6.22051 10.5363 6.22051 9.00264C6.22051 7.46898 7.46376 6.22573 8.99743 6.22573C10.5311 6.22573 11.7743 7.46898 11.7743 9.00264C11.7743 10.5363 10.5311 11.7795 8.99743 11.7795ZM8.99743 4.7247C6.63476 4.7247 4.71948 6.63998 4.71948 9.00264C4.71948 11.3653 6.63476 13.2806 8.99743 13.2806C11.3601 13.2806 13.2753 11.3653 13.2753 9.00264C13.2753 6.63998 11.3601 4.7247 8.99743 4.7247Z" fill="white"/>
<path fill-rule="evenodd" clip-rule="evenodd" d="M14.4442 4.5557C14.4442 5.10782 13.9966 5.55537 13.4445 5.55537C12.8924 5.55537 12.4448 5.10782 12.4448 4.5557C12.4448 4.00359 12.8924 3.556 13.4445 3.556C13.9966 3.556 14.4442 4.00359 14.4442 4.5557Z" fill="white"/>
</svg>
