<svg width="24" height="22" viewBox="0 0 24 22" fill="none" xmlns="http://www.w3.org/2000/svg">
<path d="M4.54545 11.9091H9.27273C9.63636 13 10.6364 13.7273 11.8182 13.7273C13 13.7273 14 13 14.3636 11.9091H19.0909C21.6364 11.9091 23.6364 9.90909 23.6364 7.36364C23.6364 4.81818 21.6364 2.81818 19.0909 2.81818H8.90909C8.54545 1.72727 7.54545 1 6.36364 1C4.81818 1 3.63636 2.18182 3.63636 3.72727C3.63636 5.27273 4.81818 6.45455 6.36364 6.45455C7.54545 6.45455 8.54545 5.72727 8.90909 4.63636H19.0909C20.6364 4.63636 21.8182 5.81818 21.8182 7.36364C21.8182 8.90909 20.6364 10.0909 19.0909 10.0909H14.3636C14 9 13 8.27273 11.8182 8.27273C10.6364 8.27273 9.63636 9 9.27273 10.0909H4.54545C2 10.0909 0 12.0909 0 14.6364C0 17.1818 2 19.1818 4.54545 19.1818H14.7273C15.0909 20.2727 16.0909 21 17.2727 21C18.8182 21 20 19.8182 20 18.2727C20 16.7273 18.8182 15.5455 17.2727 15.5455C16.0909 15.5455 15.0909 16.2727 14.7273 17.3636H4.54545C3 17.3636 1.81818 16.1818 1.81818 14.6364C1.81818 13.0909 3 11.9091 4.54545 11.9091Z" fill="#0084D1"/>
<path fill-rule="evenodd" clip-rule="evenodd" d="M17.1995 21.1425C18.7659 21.1425 20.0357 19.8727 20.0357 18.3063C20.0357 16.7399 18.7659 15.4701 17.1995 15.4701C15.6331 15.4701 14.3633 16.7399 14.3633 18.3063C14.3633 19.8727 15.6331 21.1425 17.1995 21.1425Z" fill="#00AFF5"/>
<path fill-rule="evenodd" clip-rule="evenodd" d="M11.7471 13.8361C13.3135 13.8361 14.5833 12.5663 14.5833 10.9999C14.5833 9.43351 13.3135 8.1637 11.7471 8.1637C10.1807 8.1637 8.91089 9.43351 8.91089 10.9999C8.91089 12.5663 10.1807 13.8361 11.7471 13.8361Z" fill="#0084D1"/>
<path fill-rule="evenodd" clip-rule="evenodd" d="M6.39602 6.52983C7.96241 6.52983 9.23222 5.26002 9.23222 3.69363C9.23222 2.12723 7.96241 0.857422 6.39602 0.857422C4.82963 0.857422 3.55981 2.12723 3.55981 3.69363C3.55981 5.26002 4.82963 6.52983 6.39602 6.52983Z" fill="#00AFF5"/>
<path d="M6.36368 4.6363C5.81823 4.6363 5.45459 4.27266 5.45459 3.72721C5.45459 3.18175 5.81823 2.81812 6.36368 2.81812C6.90914 2.81812 7.27277 3.18175 7.27277 3.72721C7.27277 4.27266 6.90914 4.6363 6.36368 4.6363Z" fill="white"/>
<path d="M11.8183 10.0908C12.3637 10.0908 12.7274 10.4545 12.7274 10.9999C12.7274 11.5454 12.3637 11.909 11.8183 11.909C11.2728 11.909 10.9092 11.5454 10.9092 10.9999C10.9092 10.4545 11.2728 10.0908 11.8183 10.0908Z" fill="white"/>
<path d="M17.2726 17.3635C17.8181 17.3635 18.1817 17.7272 18.1817 18.2726C18.1817 18.8181 17.8181 19.1817 17.2726 19.1817C16.7272 19.1817 16.3635 18.8181 16.3635 18.2726C16.3635 17.7272 16.7272 17.3635 17.2726 17.3635Z" fill="white"/>
</svg>
