<svg width="20" height="23" viewBox="0 0 20 23" fill="none" xmlns="http://www.w3.org/2000/svg">
<path fill-rule="evenodd" clip-rule="evenodd" d="M7.27273 5.4545H17.2727C18.7783 5.45616 19.9983 6.67623 20 8.18178V20C19.9983 21.5055 18.7783 22.7256 17.2727 22.7272H2.72727C1.22173 22.7256 0.00165337 21.5055 0 20V8.18178C0.00165337 6.67623 1.22173 5.45616 2.72727 5.4545H5.45455V4.54541C5.45562 2.70846 6.5617 1.05252 8.25819 0.348009C9.95468 -0.356497 11.9084 0.0287804 13.2105 1.32459C13.4914 1.61083 13.7351 1.93132 13.9358 2.2785C14.1834 2.71531 14.0301 3.27015 13.5933 3.51778C13.1565 3.7654 12.6016 3.61204 12.354 3.17523C12.2328 2.96702 12.0862 2.77465 11.9176 2.6025C11.1339 1.83105 9.96375 1.60522 8.94919 2.02959C7.93464 2.45397 7.27379 3.44568 7.27273 4.54541V5.4545ZM17.2727 20.909C17.7746 20.9086 18.1814 20.5018 18.1818 20V8.18178C18.1814 7.67989 17.7746 7.27314 17.2727 7.27269H2.72727C2.22538 7.27314 1.81863 7.67989 1.81818 8.18178V20C1.81863 20.5018 2.22538 20.9086 2.72727 20.909H17.2727Z" fill="#0084D1"/>
<path d="M10 10C8.67294 9.99683 7.5372 10.9516 7.31231 12.2595C7.08742 13.5674 7.839 14.8467 9.09093 15.287V17.2727C9.09093 17.7748 9.49795 18.1818 10 18.1818C10.5021 18.1818 10.9091 17.7748 10.9091 17.2727V15.287C12.161 14.8467 12.9126 13.5674 12.6877 12.2595C12.4628 10.9516 11.3271 9.99683 10 10Z" fill="#00AFF5"/>
<path d="M9.99991 13.6363C9.49783 13.6363 9.09082 13.2293 9.09082 12.7272C9.09082 12.2251 9.49783 11.8181 9.99991 11.8181C10.502 11.8181 10.909 12.2251 10.909 12.7272C10.9086 13.2291 10.5018 13.6358 9.99991 13.6363Z" fill="white"/>
</svg>
